<svg xmlns="http://www.w3.org/2000/svg" version="1.1" xmlns:xlink="http://www.w3.org/1999/xlink" xmlns:svgjs="http://svgjs.dev/svgjs" width="2000" height="1247" viewBox="0 0 2000 1247"><g transform="matrix(1,0,0,1,-1.2121212121212466,0.504858299595071)"><svg viewBox="0 0 396 247" data-background-color="#ffffff" preserveAspectRatio="xMidYMid meet" height="1247" width="2000" xmlns="http://www.w3.org/2000/svg" xmlns:xlink="http://www.w3.org/1999/xlink"><g id="tight-bounds" transform="matrix(1,0,0,1,0.2400000000000091,-0.09999999999999432)"><svg viewBox="0 0 395.52 247.2" height="247.2" width="395.52"><g><svg></svg></g><g><svg viewBox="0 0 395.52 247.2" height="247.2" width="395.52"><g transform="matrix(1,0,0,1,147.34768,37.08)"><svg viewBox="0 0 100.82464 173.04" height="173.04" width="100.82464"><g><svg viewBox="0 0 100.82464 173.04" height="173.04" width="100.82464"><g><svg viewBox="0 0 100.82464 173.04" height="173.04" width="100.82464"><g><svg viewBox="0 0 100.82464 173.04" height="173.04" width="100.82464"><g id="textblocktransform"><svg viewBox="0 0 100.82464 173.04" height="173.04" width="100.82464" id="textblock"><g><svg viewBox="0 0 100.82464 173.04" height="173.04" width="100.82464"><g transform="matrix(1,0,0,1,0,0)"><svg width="100.82464" viewBox="3 -37.5 21.850000381469727 37.5" height="173.04" data-palette-color="#31c48d"><path d="M18.6-33.05L18.6-23.8Q19.65-24.6 21.18-24.6 22.7-24.6 23.78-23.55 24.85-22.5 24.85-20.3L24.85-20.3 24.85-4.4Q24.85-2.3 24.2-1.5L24.2-1.5Q22.9 0 20.4 0L20.4 0 3 0 3-3.4 6.15-3.4 6.15-34.15 3.05-34.15 3.05-37.5 13.5-37.5Q18.6-37.5 18.6-33.05L18.6-33.05ZM10.25-18.55L14.55-21.25 14.55-34.15 10.25-34.15 10.25-18.55ZM20.85-3.45L20.85-21.2 10.25-14.55 10.25-3.45 20.85-3.45Z" opacity="1" transform="matrix(1,0,0,1,0,0)" fill="#31c48d" class="undefined-text-0" data-fill-palette-color="primary" id="text-0"></path></svg></g></svg></g></svg></g></svg></g><g></g></svg></g></svg></g></svg></g><g></g></svg></g><defs></defs></svg><rect width="395.52" height="247.2" fill="none" stroke="none" visibility="hidden"></rect></g></svg></g></svg>