<?xml version="1.0" standalone="no"?>
<!DOCTYPE svg PUBLIC "-//W3C//DTD SVG 20010904//EN"
 "http://www.w3.org/TR/2001/REC-SVG-20010904/DTD/svg10.dtd">
<svg version="1.0" xmlns="http://www.w3.org/2000/svg"
 width="450.000000pt" height="450.000000pt" viewBox="0 0 450.000000 450.000000"
 preserveAspectRatio="xMidYMid meet">

<g transform="translate(0.000000,450.000000) scale(0.100000,-0.100000)"
fill="#915eff" stroke="none">
<path d="M2089 4116 c-3 -3 -36 -10 -74 -16 -79 -12 -204 -46 -252 -66 -17 -8
-35 -14 -40 -14 -22 0 -277 -111 -328 -143 -80 -50 -126 -77 -130 -77 -3 0
-49 -33 -102 -74 -129 -98 -382 -357 -458 -470 -46 -67 -107 -212 -138 -324
l-32 -117 1 -245 c0 -183 4 -264 16 -320 9 -41 21 -106 28 -145 15 -84 79
-334 125 -485 90 -295 195 -526 313 -693 59 -83 209 -233 284 -282 162 -109
394 -191 656 -230 59 -9 126 -21 150 -26 73 -16 561 -11 660 6 182 33 251 49
292 70 14 7 39 15 55 19 59 14 207 87 295 144 79 52 261 232 314 312 106 157
167 307 213 520 20 95 25 153 30 336 5 195 3 236 -17 360 -32 206 -90 434
-141 559 -4 11 -20 49 -35 85 -88 216 -254 497 -400 675 -61 75 -357 375 -370
375 -6 0 -19 9 -28 19 -27 29 -170 115 -279 165 -136 64 -252 86 -449 86 -85
0 -157 -2 -159 -4z m361 -541 c31 -28 43 -81 37 -165 -7 -113 -53 -201 -255
-490 -29 -41 -48 -76 -43 -78 6 -2 32 6 58 18 62 27 159 55 303 85 128 28 309
34 401 14 84 -18 199 -91 199 -126 0 -7 4 -13 9 -13 5 0 13 -10 17 -22 4 -13
10 -25 15 -28 9 -6 17 -38 30 -125 13 -85 -11 -255 -47 -340 -10 -22 -18 -42
-18 -45 -1 -10 -40 -95 -46 -100 -3 -3 -6 -11 -8 -18 -5 -28 -105 -177 -180
-270 -191 -233 -481 -470 -826 -671 -110 -64 -384 -202 -451 -226 -27 -10 -55
-22 -60 -26 -50 -37 -266 -63 -325 -39 -33 13 -60 55 -60 90 0 26 31 88 83
164 62 91 67 122 77 401 5 138 17 360 27 495 21 295 23 528 4 585 -7 22 -29
64 -48 93 -32 47 -35 57 -31 106 5 60 55 173 116 263 67 98 116 133 183 133
37 0 77 20 109 55 79 86 365 253 495 288 80 22 207 18 235 -8z"/>
<path d="M2040 3176 c-79 -23 -131 -45 -189 -80 -96 -58 -92 -48 -89 -250 l3
-177 60 71 c100 119 252 321 279 371 44 80 32 93 -64 65z"/>
<path d="M2535 2554 c-22 -2 -71 -9 -110 -15 -38 -7 -77 -13 -85 -13 -23 -3
-100 -25 -143 -41 -20 -8 -41 -14 -45 -13 -4 1 -50 -19 -102 -46 -214 -109
-292 -184 -320 -309 -5 -25 -12 -130 -16 -234 -9 -278 -10 -301 -19 -383 -8
-80 -9 -109 -2 -117 3 -2 49 10 102 28 185 60 511 244 750 424 187 141 270
233 325 363 77 182 38 302 -116 348 -43 13 -117 15 -219 8z"/>
</g>
</svg>
